<svg width="140" height="26" viewBox="0 0 140 26" fill="none" xmlns="http://www.w3.org/2000/svg">
<path d="M0.49 10.1C0.49 9.13867 0.704667 8.28 1.134 7.524C1.57267 6.75867 2.16533 6.166 2.912 5.746C3.668 5.31667 4.51267 5.102 5.446 5.102C6.538 5.102 7.49467 5.382 8.316 5.942C9.13733 6.502 9.71133 7.27667 10.038 8.266H7.784C7.56 7.79933 7.24267 7.44933 6.832 7.216C6.43067 6.98267 5.964 6.866 5.432 6.866C4.86267 6.866 4.354 7.00133 3.906 7.272C3.46733 7.53333 3.122 7.90667 2.87 8.392C2.62733 8.87733 2.506 9.44667 2.506 10.1C2.506 10.744 2.62733 11.3133 2.87 11.808C3.122 12.2933 3.46733 12.6713 3.906 12.942C4.354 13.2033 4.86267 13.334 5.432 13.334C5.964 13.334 6.43067 13.2173 6.832 12.984C7.24267 12.7413 7.56 12.3867 7.784 11.92H10.038C9.71133 12.9187 9.13733 13.698 8.316 14.258C7.504 14.8087 6.54733 15.084 5.446 15.084C4.51267 15.084 3.668 14.874 2.912 14.454C2.16533 14.0247 1.57267 13.432 1.134 12.676C0.704667 11.92 0.49 11.0613 0.49 10.1ZM15.1561 15.126C14.4094 15.126 13.7374 14.9627 13.1401 14.636C12.5428 14.3 12.0714 13.8287 11.7261 13.222C11.3901 12.6153 11.2221 11.9153 11.2221 11.122C11.2221 10.3287 11.3948 9.62867 11.7401 9.022C12.0948 8.41533 12.5754 7.94867 13.1821 7.622C13.7888 7.286 14.4654 7.118 15.2121 7.118C15.9588 7.118 16.6354 7.286 17.2421 7.622C17.8488 7.94867 18.3248 8.41533 18.6701 9.022C19.0248 9.62867 19.2021 10.3287 19.2021 11.122C19.2021 11.9153 19.0201 12.6153 18.6561 13.222C18.3014 13.8287 17.8161 14.3 17.2001 14.636C16.5934 14.9627 15.9121 15.126 15.1561 15.126ZM15.1561 13.418C15.5108 13.418 15.8421 13.334 16.1501 13.166C16.4674 12.9887 16.7194 12.7273 16.9061 12.382C17.0928 12.0367 17.1861 11.6167 17.1861 11.122C17.1861 10.3847 16.9901 9.82 16.5981 9.428C16.2154 9.02667 15.7441 8.826 15.1841 8.826C14.6241 8.826 14.1528 9.02667 13.7701 9.428C13.3968 9.82 13.2101 10.3847 13.2101 11.122C13.2101 11.8593 13.3921 12.4287 13.7561 12.83C14.1294 13.222 14.5961 13.418 15.1561 13.418ZM24.9378 7.132C25.8618 7.132 26.6085 7.426 27.1778 8.014C27.7472 8.59267 28.0318 9.40467 28.0318 10.45V15H26.0718V10.716C26.0718 10.1 25.9178 9.62867 25.6098 9.302C25.3018 8.966 24.8818 8.798 24.3498 8.798C23.8085 8.798 23.3792 8.966 23.0618 9.302C22.7538 9.62867 22.5998 10.1 22.5998 10.716V15H20.6398V7.244H22.5998V8.21C22.8612 7.874 23.1925 7.61267 23.5938 7.426C24.0045 7.23 24.4525 7.132 24.9378 7.132ZM32.1777 8.854V12.606C32.1777 12.8673 32.2384 13.0587 32.3597 13.18C32.4904 13.292 32.705 13.348 33.0037 13.348H33.9137V15H32.6817C31.0297 15 30.2037 14.1973 30.2037 12.592V8.854H29.2797V7.244H30.2037V5.326H32.1777V7.244H33.9137V8.854H32.1777ZM42.5334 10.954C42.5334 11.234 42.5148 11.486 42.4774 11.71H36.8074C36.8541 12.27 37.0501 12.7087 37.3954 13.026C37.7408 13.3433 38.1654 13.502 38.6694 13.502C39.3974 13.502 39.9154 13.1893 40.2234 12.564H42.3374C42.1134 13.3107 41.6841 13.9267 41.0494 14.412C40.4148 14.888 39.6354 15.126 38.7114 15.126C37.9648 15.126 37.2928 14.9627 36.6954 14.636C36.1074 14.3 35.6454 13.8287 35.3094 13.222C34.9828 12.6153 34.8194 11.9153 34.8194 11.122C34.8194 10.3193 34.9828 9.61467 35.3094 9.008C35.6361 8.40133 36.0934 7.93467 36.6814 7.608C37.2694 7.28133 37.9461 7.118 38.7114 7.118C39.4488 7.118 40.1068 7.27667 40.6854 7.594C41.2734 7.91133 41.7261 8.364 42.0434 8.952C42.3701 9.53067 42.5334 10.198 42.5334 10.954ZM40.5034 10.394C40.4941 9.89 40.3121 9.48867 39.9574 9.19C39.6028 8.882 39.1688 8.728 38.6554 8.728C38.1701 8.728 37.7594 8.87733 37.4234 9.176C37.0968 9.46533 36.8961 9.87133 36.8214 10.394H40.5034ZM48.262 7.132C49.186 7.132 49.9327 7.426 50.502 8.014C51.0714 8.59267 51.356 9.40467 51.356 10.45V15H49.396V10.716C49.396 10.1 49.242 9.62867 48.934 9.302C48.626 8.966 48.206 8.798 47.674 8.798C47.1327 8.798 46.7034 8.966 46.386 9.302C46.078 9.62867 45.924 10.1 45.924 10.716V15H43.964V7.244H45.924V8.21C46.1854 7.874 46.5167 7.61267 46.918 7.426C47.3287 7.23 47.7767 7.132 48.262 7.132ZM55.5019 8.854V12.606C55.5019 12.8673 55.5626 13.0587 55.6839 13.18C55.8146 13.292 56.0292 13.348 56.3279 13.348H57.2379V15H56.0059C54.3539 15 53.5279 14.1973 53.5279 12.592V8.854H52.6039V7.244H53.5279V5.326H55.5019V7.244H57.2379V8.854H55.5019ZM68.7876 8.168C68.5636 7.75733 68.2556 7.44467 67.8636 7.23C67.4716 7.01533 67.0142 6.908 66.4916 6.908C65.9129 6.908 65.3996 7.03867 64.9516 7.3C64.5036 7.56133 64.1536 7.93467 63.9016 8.42C63.6496 8.90533 63.5236 9.46533 63.5236 10.1C63.5236 10.7533 63.6496 11.3227 63.9016 11.808C64.1629 12.2933 64.5222 12.6667 64.9796 12.928C65.4369 13.1893 65.9689 13.32 66.5756 13.32C67.3222 13.32 67.9336 13.124 68.4096 12.732C68.8856 12.3307 69.1982 11.7753 69.3476 11.066H65.9876V9.568H71.2796V11.276C71.1489 11.9573 70.8689 12.5873 70.4396 13.166C70.0102 13.7447 69.4549 14.2113 68.7736 14.566C68.1016 14.9113 67.3456 15.084 66.5056 15.084C65.5629 15.084 64.7089 14.874 63.9436 14.454C63.1876 14.0247 62.5902 13.432 62.1516 12.676C61.7222 11.92 61.5076 11.0613 61.5076 10.1C61.5076 9.13867 61.7222 8.28 62.1516 7.524C62.5902 6.75867 63.1876 6.166 63.9436 5.746C64.7089 5.31667 65.5582 5.102 66.4916 5.102C67.5929 5.102 68.5496 5.37267 69.3616 5.914C70.1736 6.446 70.7336 7.19733 71.0416 8.168H68.7876ZM79.9397 10.954C79.9397 11.234 79.921 11.486 79.8837 11.71H74.2137C74.2603 12.27 74.4563 12.7087 74.8017 13.026C75.147 13.3433 75.5717 13.502 76.0757 13.502C76.8037 13.502 77.3217 13.1893 77.6297 12.564H79.7437C79.5197 13.3107 79.0903 13.9267 78.4557 14.412C77.821 14.888 77.0417 15.126 76.1177 15.126C75.371 15.126 74.699 14.9627 74.1017 14.636C73.5137 14.3 73.0517 13.8287 72.7157 13.222C72.389 12.6153 72.2257 11.9153 72.2257 11.122C72.2257 10.3193 72.389 9.61467 72.7157 9.008C73.0423 8.40133 73.4997 7.93467 74.0877 7.608C74.6757 7.28133 75.3523 7.118 76.1177 7.118C76.855 7.118 77.513 7.27667 78.0917 7.594C78.6797 7.91133 79.1323 8.364 79.4497 8.952C79.7763 9.53067 79.9397 10.198 79.9397 10.954ZM77.9097 10.394C77.9003 9.89 77.7183 9.48867 77.3637 9.19C77.009 8.882 76.575 8.728 76.0617 8.728C75.5763 8.728 75.1657 8.87733 74.8297 9.176C74.503 9.46533 74.3023 9.87133 74.2277 10.394H77.9097ZM85.6683 7.132C86.5923 7.132 87.339 7.426 87.9083 8.014C88.4776 8.59267 88.7623 9.40467 88.7623 10.45V15H86.8023V10.716C86.8023 10.1 86.6483 9.62867 86.3403 9.302C86.0323 8.966 85.6123 8.798 85.0803 8.798C84.539 8.798 84.1096 8.966 83.7923 9.302C83.4843 9.62867 83.3303 10.1 83.3303 10.716V15H81.3703V7.244H83.3303V8.21C83.5916 7.874 83.923 7.61267 84.3243 7.426C84.735 7.23 85.183 7.132 85.6683 7.132ZM97.8362 10.954C97.8362 11.234 97.8175 11.486 97.7802 11.71H92.1102C92.1568 12.27 92.3528 12.7087 92.6982 13.026C93.0435 13.3433 93.4682 13.502 93.9722 13.502C94.7002 13.502 95.2182 13.1893 95.5262 12.564H97.6402C97.4162 13.3107 96.9868 13.9267 96.3522 14.412C95.7175 14.888 94.9382 15.126 94.0142 15.126C93.2675 15.126 92.5955 14.9627 91.9982 14.636C91.4102 14.3 90.9482 13.8287 90.6122 13.222C90.2855 12.6153 90.1222 11.9153 90.1222 11.122C90.1222 10.3193 90.2855 9.61467 90.6122 9.008C90.9388 8.40133 91.3962 7.93467 91.9842 7.608C92.5722 7.28133 93.2488 7.118 94.0142 7.118C94.7515 7.118 95.4095 7.27667 95.9882 7.594C96.5762 7.91133 97.0288 8.364 97.3462 8.952C97.6728 9.53067 97.8362 10.198 97.8362 10.954ZM95.8062 10.394C95.7968 9.89 95.6148 9.48867 95.2602 9.19C94.9055 8.882 94.4715 8.728 93.9582 8.728C93.4728 8.728 93.0622 8.87733 92.7262 9.176C92.3995 9.46533 92.1988 9.87133 92.1242 10.394H95.8062ZM101.227 8.448C101.479 8.03733 101.805 7.71533 102.207 7.482C102.617 7.24867 103.084 7.132 103.607 7.132V9.19H103.089C102.473 9.19 102.006 9.33467 101.689 9.624C101.381 9.91333 101.227 10.4173 101.227 11.136V15H99.2668V7.244H101.227V8.448ZM104.423 11.094C104.423 10.31 104.577 9.61467 104.885 9.008C105.202 8.40133 105.627 7.93467 106.159 7.608C106.7 7.28133 107.302 7.118 107.965 7.118C108.544 7.118 109.048 7.23467 109.477 7.468C109.916 7.70133 110.266 7.99533 110.527 8.35V7.244H112.501V15H110.527V13.866C110.275 14.23 109.925 14.5333 109.477 14.776C109.038 15.0093 108.53 15.126 107.951 15.126C107.298 15.126 106.7 14.958 106.159 14.622C105.627 14.286 105.202 13.8147 104.885 13.208C104.577 12.592 104.423 11.8873 104.423 11.094ZM110.527 11.122C110.527 10.646 110.434 10.24 110.247 9.904C110.06 9.55867 109.808 9.29733 109.491 9.12C109.174 8.93333 108.833 8.84 108.469 8.84C108.105 8.84 107.769 8.92867 107.461 9.106C107.153 9.28333 106.901 9.54467 106.705 9.89C106.518 10.226 106.425 10.6273 106.425 11.094C106.425 11.5607 106.518 11.9713 106.705 12.326C106.901 12.6713 107.153 12.9373 107.461 13.124C107.778 13.3107 108.114 13.404 108.469 13.404C108.833 13.404 109.174 13.3153 109.491 13.138C109.808 12.9513 110.06 12.69 110.247 12.354C110.434 12.0087 110.527 11.598 110.527 11.122ZM116.697 8.854V12.606C116.697 12.8673 116.758 13.0587 116.879 13.18C117.01 13.292 117.225 13.348 117.523 13.348H118.433V15H117.201C115.549 15 114.723 14.1973 114.723 12.592V8.854H113.799V7.244H114.723V5.326H116.697V7.244H118.433V8.854H116.697ZM123.287 15.126C122.54 15.126 121.868 14.9627 121.271 14.636C120.674 14.3 120.202 13.8287 119.857 13.222C119.521 12.6153 119.353 11.9153 119.353 11.122C119.353 10.3287 119.526 9.62867 119.871 9.022C120.226 8.41533 120.706 7.94867 121.313 7.622C121.92 7.286 122.596 7.118 123.343 7.118C124.09 7.118 124.766 7.286 125.373 7.622C125.98 7.94867 126.456 8.41533 126.801 9.022C127.156 9.62867 127.333 10.3287 127.333 11.122C127.333 11.9153 127.151 12.6153 126.787 13.222C126.432 13.8287 125.947 14.3 125.331 14.636C124.724 14.9627 124.043 15.126 123.287 15.126ZM123.287 13.418C123.642 13.418 123.973 13.334 124.281 13.166C124.598 12.9887 124.85 12.7273 125.037 12.382C125.224 12.0367 125.317 11.6167 125.317 11.122C125.317 10.3847 125.121 9.82 124.729 9.428C124.346 9.02667 123.875 8.826 123.315 8.826C122.755 8.826 122.284 9.02667 121.901 9.428C121.528 9.82 121.341 10.3847 121.341 11.122C121.341 11.8593 121.523 12.4287 121.887 12.83C122.26 13.222 122.727 13.418 123.287 13.418ZM130.731 8.448C130.983 8.03733 131.309 7.71533 131.711 7.482C132.121 7.24867 132.588 7.132 133.111 7.132V9.19H132.593C131.977 9.19 131.51 9.33467 131.193 9.624C130.885 9.91333 130.731 10.4173 130.731 11.136V15H128.771V7.244H130.731V8.448Z" fill="#595959"/>
</svg>
