<svg width="169" height="30" viewBox="0 0 169 30" fill="none" xmlns="http://www.w3.org/2000/svg">
<path d="M29.518 14.114C29.518 13.162 29.7373 12.308 30.176 11.552C30.624 10.796 31.226 10.208 31.982 9.788C32.7473 9.35867 33.5827 9.144 34.488 9.144C35.524 9.144 36.4433 9.40067 37.246 9.914C38.058 10.418 38.646 11.1367 39.01 12.07H37.092C36.84 11.5567 36.49 11.174 36.042 10.922C35.594 10.67 35.076 10.544 34.488 10.544C33.844 10.544 33.27 10.6887 32.766 10.978C32.262 11.2673 31.8653 11.6827 31.576 12.224C31.296 12.7653 31.156 13.3953 31.156 14.114C31.156 14.8327 31.296 15.4627 31.576 16.004C31.8653 16.5453 32.262 16.9653 32.766 17.264C33.27 17.5533 33.844 17.698 34.488 17.698C35.076 17.698 35.594 17.572 36.042 17.32C36.49 17.068 36.84 16.6853 37.092 16.172H39.01C38.646 17.1053 38.058 17.824 37.246 18.328C36.4433 18.832 35.524 19.084 34.488 19.084C33.5733 19.084 32.738 18.874 31.982 18.454C31.226 18.0247 30.624 17.432 30.176 16.676C29.7373 15.92 29.518 15.066 29.518 14.114ZM44.2241 19.126C43.4961 19.126 42.8381 18.9627 42.2501 18.636C41.6621 18.3 41.2001 17.8333 40.8641 17.236C40.5281 16.6293 40.3601 15.9293 40.3601 15.136C40.3601 14.352 40.5328 13.6567 40.8781 13.05C41.2235 12.4433 41.6948 11.9767 42.2921 11.65C42.8895 11.3233 43.5568 11.16 44.2941 11.16C45.0315 11.16 45.6988 11.3233 46.2961 11.65C46.8935 11.9767 47.3648 12.4433 47.7101 13.05C48.0555 13.6567 48.2281 14.352 48.2281 15.136C48.2281 15.92 48.0508 16.6153 47.6961 17.222C47.3415 17.8287 46.8561 18.3 46.2401 18.636C45.6335 18.9627 44.9615 19.126 44.2241 19.126ZM44.2241 17.74C44.6348 17.74 45.0175 17.642 45.3721 17.446C45.7361 17.25 46.0301 16.956 46.2541 16.564C46.4781 16.172 46.5901 15.696 46.5901 15.136C46.5901 14.576 46.4828 14.1047 46.2681 13.722C46.0535 13.33 45.7688 13.036 45.4141 12.84C45.0595 12.644 44.6768 12.546 44.2661 12.546C43.8555 12.546 43.4728 12.644 43.1181 12.84C42.7728 13.036 42.4975 13.33 42.2921 13.722C42.0868 14.1047 41.9841 14.576 41.9841 15.136C41.9841 15.9667 42.1941 16.6107 42.6141 17.068C43.0435 17.516 43.5801 17.74 44.2241 17.74ZM53.6979 11.16C54.3045 11.16 54.8459 11.286 55.3219 11.538C55.8072 11.79 56.1852 12.1633 56.4559 12.658C56.7265 13.1527 56.8619 13.75 56.8619 14.45V19H55.2799V14.688C55.2799 13.9973 55.1072 13.47 54.7619 13.106C54.4165 12.7327 53.9452 12.546 53.3479 12.546C52.7505 12.546 52.2745 12.7327 51.9199 13.106C51.5745 13.47 51.4019 13.9973 51.4019 14.688V19H49.8059V11.286H51.4019V12.168C51.6632 11.8507 51.9945 11.6033 52.3959 11.426C52.8065 11.2487 53.2405 11.16 53.6979 11.16ZM60.7597 12.588V16.858C60.7597 17.1473 60.825 17.3573 60.9557 17.488C61.0957 17.6093 61.329 17.67 61.6557 17.67H62.6357V19H61.3757C60.657 19 60.1063 18.832 59.7237 18.496C59.341 18.16 59.1497 17.614 59.1497 16.858V12.588H58.2397V11.286H59.1497V9.368H60.7597V11.286H62.6357V12.588H60.7597ZM71.1766 14.954C71.1766 15.2433 71.158 15.5047 71.1206 15.738H65.2266C65.2733 16.354 65.502 16.8487 65.9126 17.222C66.3233 17.5953 66.8273 17.782 67.4246 17.782C68.2833 17.782 68.89 17.4227 69.2446 16.704H70.9666C70.7333 17.4133 70.3086 17.9967 69.6926 18.454C69.086 18.902 68.33 19.126 67.4246 19.126C66.6873 19.126 66.0246 18.9627 65.4366 18.636C64.858 18.3 64.4006 17.8333 64.0646 17.236C63.738 16.6293 63.5746 15.9293 63.5746 15.136C63.5746 14.3427 63.7333 13.6473 64.0506 13.05C64.3773 12.4433 64.83 11.9767 65.4086 11.65C65.9966 11.3233 66.6686 11.16 67.4246 11.16C68.1526 11.16 68.8013 11.3187 69.3706 11.636C69.94 11.9533 70.3833 12.4013 70.7006 12.98C71.018 13.5493 71.1766 14.2073 71.1766 14.954ZM69.5106 14.45C69.5013 13.862 69.2913 13.3907 68.8806 13.036C68.47 12.6813 67.9613 12.504 67.3546 12.504C66.804 12.504 66.3326 12.6813 65.9406 13.036C65.5486 13.3813 65.3153 13.8527 65.2406 14.45H69.5106ZM76.6393 11.16C77.2459 11.16 77.7873 11.286 78.2633 11.538C78.7486 11.79 79.1266 12.1633 79.3973 12.658C79.6679 13.1527 79.8033 13.75 79.8033 14.45V19H78.2213V14.688C78.2213 13.9973 78.0486 13.47 77.7033 13.106C77.3579 12.7327 76.8866 12.546 76.2893 12.546C75.6919 12.546 75.2159 12.7327 74.8613 13.106C74.5159 13.47 74.3433 13.9973 74.3433 14.688V19H72.7473V11.286H74.3433V12.168C74.6046 11.8507 74.9359 11.6033 75.3373 11.426C75.7479 11.2487 76.1819 11.16 76.6393 11.16ZM83.7011 12.588V16.858C83.7011 17.1473 83.7664 17.3573 83.8971 17.488C84.0371 17.6093 84.2704 17.67 84.5971 17.67H85.5771V19H84.3171C83.5984 19 83.0477 18.832 82.6651 18.496C82.2824 18.16 82.0911 17.614 82.0911 16.858V12.588H81.1811V11.286H82.0911V9.368H83.7011V11.286H85.5771V12.588H83.7011ZM97.7268 12.07C97.4748 11.5847 97.1248 11.2207 96.6768 10.978C96.2288 10.726 95.7108 10.6 95.1228 10.6C94.4788 10.6 93.9048 10.7447 93.4008 11.034C92.8968 11.3233 92.5001 11.734 92.2108 12.266C91.9308 12.798 91.7908 13.414 91.7908 14.114C91.7908 14.814 91.9308 15.4347 92.2108 15.976C92.5001 16.508 92.8968 16.9187 93.4008 17.208C93.9048 17.4973 94.4788 17.642 95.1228 17.642C95.9908 17.642 96.6954 17.3993 97.2368 16.914C97.7781 16.4287 98.1094 15.7707 98.2308 14.94H94.5768V13.666H99.9388V14.912C99.8361 15.668 99.5654 16.3633 99.1268 16.998C98.6974 17.6327 98.1328 18.1413 97.4328 18.524C96.7421 18.8973 95.9721 19.084 95.1228 19.084C94.2081 19.084 93.3728 18.874 92.6168 18.454C91.8608 18.0247 91.2588 17.432 90.8108 16.676C90.3721 15.92 90.1528 15.066 90.1528 14.114C90.1528 13.162 90.3721 12.308 90.8108 11.552C91.2588 10.796 91.8608 10.208 92.6168 9.788C93.3821 9.35867 94.2174 9.144 95.1228 9.144C96.1588 9.144 97.0781 9.40067 97.8808 9.914C98.6928 10.418 99.2808 11.1367 99.6448 12.07H97.7268ZM108.583 14.954C108.583 15.2433 108.564 15.5047 108.527 15.738H102.633C102.68 16.354 102.908 16.8487 103.319 17.222C103.73 17.5953 104.234 17.782 104.831 17.782C105.69 17.782 106.296 17.4227 106.651 16.704H108.373C108.14 17.4133 107.715 17.9967 107.099 18.454C106.492 18.902 105.736 19.126 104.831 19.126C104.094 19.126 103.431 18.9627 102.843 18.636C102.264 18.3 101.807 17.8333 101.471 17.236C101.144 16.6293 100.981 15.9293 100.981 15.136C100.981 14.3427 101.14 13.6473 101.457 13.05C101.784 12.4433 102.236 11.9767 102.815 11.65C103.403 11.3233 104.075 11.16 104.831 11.16C105.559 11.16 106.208 11.3187 106.777 11.636C107.346 11.9533 107.79 12.4013 108.107 12.98C108.424 13.5493 108.583 14.2073 108.583 14.954ZM106.917 14.45C106.908 13.862 106.698 13.3907 106.287 13.036C105.876 12.6813 105.368 12.504 104.761 12.504C104.21 12.504 103.739 12.6813 103.347 13.036C102.955 13.3813 102.722 13.8527 102.647 14.45H106.917ZM114.046 11.16C114.652 11.16 115.194 11.286 115.67 11.538C116.155 11.79 116.533 12.1633 116.804 12.658C117.074 13.1527 117.21 13.75 117.21 14.45V19H115.628V14.688C115.628 13.9973 115.455 13.47 115.11 13.106C114.764 12.7327 114.293 12.546 113.696 12.546C113.098 12.546 112.622 12.7327 112.268 13.106C111.922 13.47 111.75 13.9973 111.75 14.688V19H110.154V11.286H111.75V12.168C112.011 11.8507 112.342 11.6033 112.744 11.426C113.154 11.2487 113.588 11.16 114.046 11.16ZM126.315 14.954C126.315 15.2433 126.297 15.5047 126.259 15.738H120.365C120.412 16.354 120.641 16.8487 121.051 17.222C121.462 17.5953 121.966 17.782 122.563 17.782C123.422 17.782 124.029 17.4227 124.383 16.704H126.105C125.872 17.4133 125.447 17.9967 124.831 18.454C124.225 18.902 123.469 19.126 122.563 19.126C121.826 19.126 121.163 18.9627 120.575 18.636C119.997 18.3 119.539 17.8333 119.203 17.236C118.877 16.6293 118.713 15.9293 118.713 15.136C118.713 14.3427 118.872 13.6473 119.189 13.05C119.516 12.4433 119.969 11.9767 120.547 11.65C121.135 11.3233 121.807 11.16 122.563 11.16C123.291 11.16 123.94 11.3187 124.509 11.636C125.079 11.9533 125.522 12.4013 125.839 12.98C126.157 13.5493 126.315 14.2073 126.315 14.954ZM124.649 14.45C124.64 13.862 124.43 13.3907 124.019 13.036C123.609 12.6813 123.1 12.504 122.493 12.504C121.943 12.504 121.471 12.6813 121.079 13.036C120.687 13.3813 120.454 13.8527 120.379 14.45H124.649ZM129.482 12.406C129.715 12.014 130.023 11.7107 130.406 11.496C130.798 11.272 131.26 11.16 131.792 11.16V12.812H131.386C130.761 12.812 130.285 12.9707 129.958 13.288C129.641 13.6053 129.482 14.156 129.482 14.94V19H127.886V11.286H129.482V12.406ZM132.727 15.108C132.727 14.3333 132.886 13.6473 133.203 13.05C133.53 12.4527 133.968 11.9907 134.519 11.664C135.079 11.328 135.695 11.16 136.367 11.16C136.974 11.16 137.501 11.2813 137.949 11.524C138.406 11.7573 138.77 12.0513 139.041 12.406V11.286H140.651V19H139.041V17.852C138.77 18.216 138.402 18.5193 137.935 18.762C137.468 19.0047 136.936 19.126 136.339 19.126C135.676 19.126 135.07 18.958 134.519 18.622C133.968 18.2767 133.53 17.8007 133.203 17.194C132.886 16.578 132.727 15.8827 132.727 15.108ZM139.041 15.136C139.041 14.604 138.929 14.142 138.705 13.75C138.49 13.358 138.206 13.0593 137.851 12.854C137.496 12.6487 137.114 12.546 136.703 12.546C136.292 12.546 135.91 12.6487 135.555 12.854C135.2 13.05 134.911 13.344 134.687 13.736C134.472 14.1187 134.365 14.576 134.365 15.108C134.365 15.64 134.472 16.1067 134.687 16.508C134.911 16.9093 135.2 17.2173 135.555 17.432C135.919 17.6373 136.302 17.74 136.703 17.74C137.114 17.74 137.496 17.6373 137.851 17.432C138.206 17.2267 138.49 16.928 138.705 16.536C138.929 16.1347 139.041 15.668 139.041 15.136ZM144.609 12.588V16.858C144.609 17.1473 144.675 17.3573 144.805 17.488C144.945 17.6093 145.179 17.67 145.505 17.67H146.485V19H145.225C144.507 19 143.956 18.832 143.573 18.496C143.191 18.16 142.999 17.614 142.999 16.858V12.588H142.089V11.286H142.999V9.368H144.609V11.286H146.485V12.588H144.609ZM151.302 19.126C150.574 19.126 149.916 18.9627 149.328 18.636C148.74 18.3 148.278 17.8333 147.942 17.236C147.606 16.6293 147.438 15.9293 147.438 15.136C147.438 14.352 147.611 13.6567 147.956 13.05C148.302 12.4433 148.773 11.9767 149.37 11.65C149.968 11.3233 150.635 11.16 151.372 11.16C152.11 11.16 152.777 11.3233 153.374 11.65C153.972 11.9767 154.443 12.4433 154.788 13.05C155.134 13.6567 155.306 14.352 155.306 15.136C155.306 15.92 155.129 16.6153 154.774 17.222C154.42 17.8287 153.934 18.3 153.318 18.636C152.712 18.9627 152.04 19.126 151.302 19.126ZM151.302 17.74C151.713 17.74 152.096 17.642 152.45 17.446C152.814 17.25 153.108 16.956 153.332 16.564C153.556 16.172 153.668 15.696 153.668 15.136C153.668 14.576 153.561 14.1047 153.346 13.722C153.132 13.33 152.847 13.036 152.492 12.84C152.138 12.644 151.755 12.546 151.344 12.546C150.934 12.546 150.551 12.644 150.196 12.84C149.851 13.036 149.576 13.33 149.37 13.722C149.165 14.1047 149.062 14.576 149.062 15.136C149.062 15.9667 149.272 16.6107 149.692 17.068C150.122 17.516 150.658 17.74 151.302 17.74ZM158.48 12.406C158.713 12.014 159.021 11.7107 159.404 11.496C159.796 11.272 160.258 11.16 160.79 11.16V12.812H160.384C159.759 12.812 159.283 12.9707 158.956 13.288C158.639 13.6053 158.48 14.156 158.48 14.94V19H156.884V11.286H158.48V12.406Z" fill="#595959"/>
<mask id="path-2-inside-1_4_17" fill="white">
<path d="M25.4085 18.2027C25.2101 17.2147 24.9887 16.2242 24.7507 15.2584C24.2047 13.0436 23.923 10.6703 23.923 10.1452C23.923 10.0601 23.8937 9.98317 23.8465 9.92752L21.3223 6.94365V5.14591C21.3223 4.7211 21.1717 4.31161 20.9094 4.02219L17.6384 0.413742C17.3968 0.146829 17.0817 0 16.7513 0H5.45796C5.02775 0 4.67775 0.413742 4.67775 0.922295V6.94365L2.15356 9.92752C2.10633 9.98317 2.07704 10.0601 2.07704 10.1452C2.07704 10.6703 1.79539 13.0436 1.24934 15.2584C1.01138 16.2242 0.789905 17.2146 0.591575 18.203C0.172758 20.2887 0.0397057 21.7997 0.00157936 22.7004C-0.0278606 23.4093 0.356887 24.044 0.937468 24.2436C1.61459 24.4766 2.08542 24.5946 2.33711 24.5946H23.6629C23.9146 24.5946 24.3855 24.4766 25.0625 24.2436C25.6431 24.044 26.0279 23.4093 25.9984 22.7001C25.9603 21.7997 25.8273 20.2887 25.4085 18.2027ZM23.0351 9.83781H21.3222V7.81307L23.0351 9.83781ZM20.5545 4.47184C20.664 4.59266 20.7385 4.74939 20.7752 4.91891H17.4212C17.2777 4.91891 17.1612 4.78112 17.1612 4.61148V0.771654C17.2021 0.802274 17.2474 0.823302 17.2834 0.863145L20.5545 4.47184ZM5.45801 0.614863H16.641V4.61148C16.641 5.12003 16.991 5.53377 17.4212 5.53377H20.8022V9.83781H5.19789V0.922295C5.19789 0.752654 5.3145 0.614863 5.45801 0.614863ZM4.6778 9.83781H2.96498L4.6778 7.81307V9.83781ZM24.9173 23.6533C24.0914 23.9373 23.7769 23.9797 23.6629 23.9797H2.33711C2.2231 23.9797 1.90867 23.9374 1.08274 23.6533C0.734561 23.5335 0.503411 23.154 0.5212 22.7307C0.558026 21.8561 0.688061 20.3853 1.09746 18.345C1.29402 17.3669 1.51295 16.3864 1.74868 15.4307C2.23049 13.4766 2.52026 11.3638 2.58377 10.4527H23.4163C23.4798 11.3638 23.7696 13.4766 24.2514 15.4307C24.487 16.3864 24.706 17.3669 24.9026 18.3448C25.312 20.3854 25.442 21.8562 25.4788 22.7305C25.4966 23.1541 25.2655 23.5335 24.9173 23.6533ZM6.75831 2.76689C6.75831 2.59694 6.87461 2.45945 7.01838 2.45945H14.8205C14.9643 2.45945 15.0806 2.59694 15.0806 2.76689C15.0806 2.93683 14.9643 3.07432 14.8205 3.07432H7.01838C6.87461 3.07432 6.75831 2.93683 6.75831 2.76689ZM6.75831 5.22634C6.75831 5.05639 6.87461 4.91891 7.01838 4.91891H14.8205C14.9643 4.91891 15.0806 5.05639 15.0806 5.22634C15.0806 5.39629 14.9643 5.53377 14.8205 5.53377H7.01838C6.87461 5.53377 6.75831 5.39629 6.75831 5.22634ZM6.75831 7.68579C6.75831 7.51584 6.87461 7.37836 7.01838 7.37836H18.9816C19.1254 7.37836 19.2417 7.51584 19.2417 7.68579C19.2417 7.85574 19.1254 7.99322 18.9816 7.99322H7.01838C6.87461 7.99322 6.75831 7.85574 6.75831 7.68579ZM7.27845 15.679C7.27845 15.849 7.16215 15.9864 7.01838 15.9864H4.41768C4.27391 15.9864 4.15761 15.849 4.15761 15.679C4.15761 15.5091 4.27391 15.3716 4.41768 15.3716H7.01838C7.16215 15.3716 7.27845 15.5091 7.27845 15.679ZM11.9597 15.679C11.9597 15.849 11.8434 15.9864 11.6996 15.9864H9.09894C8.95518 15.9864 8.83887 15.849 8.83887 15.679C8.83887 15.5091 8.95518 15.3716 9.09894 15.3716H11.6996C11.8434 15.3716 11.9597 15.5091 11.9597 15.679ZM16.641 15.679C16.641 15.849 16.5247 15.9864 16.3809 15.9864H13.7802C13.6364 15.9864 13.5201 15.849 13.5201 15.679C13.5201 15.5091 13.6364 15.3716 13.7802 15.3716H16.3809C16.5247 15.3716 16.641 15.5091 16.641 15.679ZM21.3222 15.679C21.3222 15.849 21.2059 15.9864 21.0622 15.9864H18.4615C18.3177 15.9864 18.2014 15.849 18.2014 15.679C18.2014 15.5091 18.3177 15.3716 18.4615 15.3716H21.0622C21.2059 15.3716 21.3222 15.5091 21.3222 15.679ZM7.27845 19.9831C7.27845 20.153 7.16215 20.2905 7.01838 20.2905H4.41768C4.27391 20.2905 4.15761 20.153 4.15761 19.9831C4.15761 19.8131 4.27391 19.6756 4.41768 19.6756H7.01838C7.16215 19.6756 7.27845 19.8131 7.27845 19.9831ZM11.9597 19.9831C11.9597 20.153 11.8434 20.2905 11.6996 20.2905H9.09894C8.95518 20.2905 8.83887 20.153 8.83887 19.9831C8.83887 19.8131 8.95518 19.6756 9.09894 19.6756H11.6996C11.8434 19.6756 11.9597 19.8131 11.9597 19.9831ZM16.641 19.9831C16.641 20.153 16.5247 20.2905 16.3809 20.2905H13.7802C13.6364 20.2905 13.5201 20.153 13.5201 19.9831C13.5201 19.8131 13.6364 19.6756 13.7802 19.6756H16.3809C16.5247 19.6756 16.641 19.8131 16.641 19.9831ZM21.3222 19.9831C21.3222 20.153 21.2059 20.2905 21.0622 20.2905H18.4615C18.3177 20.2905 18.2014 20.153 18.2014 19.9831C18.2014 19.8131 18.3177 19.6756 18.4615 19.6756H21.0622C21.2059 19.6756 21.3222 19.8131 21.3222 19.9831Z"/>
</mask>
<path d="M25.4085 18.2027C25.2101 17.2147 24.9887 16.2242 24.7507 15.2584C24.2047 13.0436 23.923 10.6703 23.923 10.1452C23.923 10.0601 23.8937 9.98317 23.8465 9.92752L21.3223 6.94365V5.14591C21.3223 4.7211 21.1717 4.31161 20.9094 4.02219L17.6384 0.413742C17.3968 0.146829 17.0817 0 16.7513 0H5.45796C5.02775 0 4.67775 0.413742 4.67775 0.922295V6.94365L2.15356 9.92752C2.10633 9.98317 2.07704 10.0601 2.07704 10.1452C2.07704 10.6703 1.79539 13.0436 1.24934 15.2584C1.01138 16.2242 0.789905 17.2146 0.591575 18.203C0.172758 20.2887 0.0397057 21.7997 0.00157936 22.7004C-0.0278606 23.4093 0.356887 24.044 0.937468 24.2436C1.61459 24.4766 2.08542 24.5946 2.33711 24.5946H23.6629C23.9146 24.5946 24.3855 24.4766 25.0625 24.2436C25.6431 24.044 26.0279 23.4093 25.9984 22.7001C25.9603 21.7997 25.8273 20.2887 25.4085 18.2027ZM23.0351 9.83781H21.3222V7.81307L23.0351 9.83781ZM20.5545 4.47184C20.664 4.59266 20.7385 4.74939 20.7752 4.91891H17.4212C17.2777 4.91891 17.1612 4.78112 17.1612 4.61148V0.771654C17.2021 0.802274 17.2474 0.823302 17.2834 0.863145L20.5545 4.47184ZM5.45801 0.614863H16.641V4.61148C16.641 5.12003 16.991 5.53377 17.4212 5.53377H20.8022V9.83781H5.19789V0.922295C5.19789 0.752654 5.3145 0.614863 5.45801 0.614863ZM4.6778 9.83781H2.96498L4.6778 7.81307V9.83781ZM24.9173 23.6533C24.0914 23.9373 23.7769 23.9797 23.6629 23.9797H2.33711C2.2231 23.9797 1.90867 23.9374 1.08274 23.6533C0.734561 23.5335 0.503411 23.154 0.5212 22.7307C0.558026 21.8561 0.688061 20.3853 1.09746 18.345C1.29402 17.3669 1.51295 16.3864 1.74868 15.4307C2.23049 13.4766 2.52026 11.3638 2.58377 10.4527H23.4163C23.4798 11.3638 23.7696 13.4766 24.2514 15.4307C24.487 16.3864 24.706 17.3669 24.9026 18.3448C25.312 20.3854 25.442 21.8562 25.4788 22.7305C25.4966 23.1541 25.2655 23.5335 24.9173 23.6533ZM6.75831 2.76689C6.75831 2.59694 6.87461 2.45945 7.01838 2.45945H14.8205C14.9643 2.45945 15.0806 2.59694 15.0806 2.76689C15.0806 2.93683 14.9643 3.07432 14.8205 3.07432H7.01838C6.87461 3.07432 6.75831 2.93683 6.75831 2.76689ZM6.75831 5.22634C6.75831 5.05639 6.87461 4.91891 7.01838 4.91891H14.8205C14.9643 4.91891 15.0806 5.05639 15.0806 5.22634C15.0806 5.39629 14.9643 5.53377 14.8205 5.53377H7.01838C6.87461 5.53377 6.75831 5.39629 6.75831 5.22634ZM6.75831 7.68579C6.75831 7.51584 6.87461 7.37836 7.01838 7.37836H18.9816C19.1254 7.37836 19.2417 7.51584 19.2417 7.68579C19.2417 7.85574 19.1254 7.99322 18.9816 7.99322H7.01838C6.87461 7.99322 6.75831 7.85574 6.75831 7.68579ZM7.27845 15.679C7.27845 15.849 7.16215 15.9864 7.01838 15.9864H4.41768C4.27391 15.9864 4.15761 15.849 4.15761 15.679C4.15761 15.5091 4.27391 15.3716 4.41768 15.3716H7.01838C7.16215 15.3716 7.27845 15.5091 7.27845 15.679ZM11.9597 15.679C11.9597 15.849 11.8434 15.9864 11.6996 15.9864H9.09894C8.95518 15.9864 8.83887 15.849 8.83887 15.679C8.83887 15.5091 8.95518 15.3716 9.09894 15.3716H11.6996C11.8434 15.3716 11.9597 15.5091 11.9597 15.679ZM16.641 15.679C16.641 15.849 16.5247 15.9864 16.3809 15.9864H13.7802C13.6364 15.9864 13.5201 15.849 13.5201 15.679C13.5201 15.5091 13.6364 15.3716 13.7802 15.3716H16.3809C16.5247 15.3716 16.641 15.5091 16.641 15.679ZM21.3222 15.679C21.3222 15.849 21.2059 15.9864 21.0622 15.9864H18.4615C18.3177 15.9864 18.2014 15.849 18.2014 15.679C18.2014 15.5091 18.3177 15.3716 18.4615 15.3716H21.0622C21.2059 15.3716 21.3222 15.5091 21.3222 15.679ZM7.27845 19.9831C7.27845 20.153 7.16215 20.2905 7.01838 20.2905H4.41768C4.27391 20.2905 4.15761 20.153 4.15761 19.9831C4.15761 19.8131 4.27391 19.6756 4.41768 19.6756H7.01838C7.16215 19.6756 7.27845 19.8131 7.27845 19.9831ZM11.9597 19.9831C11.9597 20.153 11.8434 20.2905 11.6996 20.2905H9.09894C8.95518 20.2905 8.83887 20.153 8.83887 19.9831C8.83887 19.8131 8.95518 19.6756 9.09894 19.6756H11.6996C11.8434 19.6756 11.9597 19.8131 11.9597 19.9831ZM16.641 19.9831C16.641 20.153 16.5247 20.2905 16.3809 20.2905H13.7802C13.6364 20.2905 13.5201 20.153 13.5201 19.9831C13.5201 19.8131 13.6364 19.6756 13.7802 19.6756H16.3809C16.5247 19.6756 16.641 19.8131 16.641 19.9831ZM21.3222 19.9831C21.3222 20.153 21.2059 20.2905 21.0622 20.2905H18.4615C18.3177 20.2905 18.2014 20.153 18.2014 19.9831C18.2014 19.8131 18.3177 19.6756 18.4615 19.6756H21.0622C21.2059 19.6756 21.3222 19.8131 21.3222 19.9831Z" fill="black" stroke="#595959" stroke-width="2" mask="url(#path-2-inside-1_4_17)"/>
</svg>
